<svg width="211" height="85" viewBox="0 0 211 85" fill="none" xmlns="http://www.w3.org/2000/svg">
<path d="M22.908 16.468L9.798 46H6.072L19.55 16.376H3.588V13.432H22.908V16.468ZM35.1476 43.792C35.1476 44.436 34.9176 45.0187 34.4576 45.54C33.9976 46.0307 33.3996 46.276 32.6636 46.276C31.9276 46.276 31.3296 46.0307 30.8696 45.54C30.4096 45.0187 30.1796 44.436 30.1796 43.792C30.1796 43.148 30.4096 42.5807 30.8696 42.09C31.3296 41.5687 31.9276 41.308 32.6636 41.308C33.3996 41.308 33.9976 41.5687 34.4576 42.09C34.9176 42.5807 35.1476 43.148 35.1476 43.792ZM60.4828 16.376H46.9128L46.6828 26.45C47.3881 26.2047 48.1241 26.0207 48.8908 25.898C49.6881 25.7753 50.4548 25.714 51.1908 25.714C52.7241 25.714 54.1348 25.9593 55.4228 26.45C56.7108 26.9407 57.8301 27.646 58.7808 28.566C59.7315 29.4553 60.4675 30.5287 60.9888 31.786C61.5101 33.0433 61.7708 34.4233 61.7708 35.926C61.7708 37.49 61.5101 38.9467 60.9888 40.296C60.4675 41.6147 59.7315 42.7647 58.7808 43.746C57.8301 44.6967 56.6801 45.448 55.3308 46C54.0121 46.552 52.5555 46.828 50.9608 46.828C48.5995 46.828 46.6061 46.2913 44.9808 45.218C43.3555 44.1447 42.0981 42.7033 41.2088 40.894L44.1988 39.56C44.7815 40.9093 45.6555 41.9827 46.8208 42.78C48.0168 43.5773 49.3355 43.976 50.7768 43.976C51.8808 43.976 52.8928 43.792 53.8128 43.424C54.7635 43.0253 55.5761 42.4887 56.2508 41.814C56.9255 41.1087 57.4468 40.2807 57.8148 39.33C58.2135 38.3793 58.4128 37.352 58.4128 36.248C58.4128 35.052 58.1981 33.9787 57.7688 33.028C57.3701 32.0467 56.8028 31.2187 56.0668 30.544C55.3615 29.8693 54.5181 29.348 53.5368 28.98C52.5555 28.612 51.4821 28.428 50.3168 28.428C49.1515 28.428 47.9861 28.5967 46.8208 28.934C45.6861 29.2407 44.5975 29.67 43.5548 30.222L43.8768 13.432H60.4828V16.376ZM72.6764 34.178H72.8144L82.7504 24.472H87.2584L76.4024 34.316L88.3624 46H83.7624L72.8144 34.684H72.6764V46H69.5484V11.224H72.6764V34.178Z" fill="#13253A"/>
<path d="M105.464 30.682H115.814V33.442H105.464V43.792H102.704V33.442H92.3536V30.682H102.704V20.332H105.464V30.682Z" fill="#FF7F57"/>
<path d="M4.368 76.696H4.4L7.056 67.672H8.8L11.44 76.696H11.472L13.968 67.672H15.648L12.32 79H10.672L7.92 69.896H7.888L5.136 79H3.488L0.16 67.672H1.872L4.368 76.696ZM22.0824 74.536C22.0717 74.2373 22.0184 73.96 21.9224 73.704C21.837 73.4373 21.7037 73.208 21.5224 73.016C21.3517 72.824 21.133 72.6747 20.8664 72.568C20.6104 72.4507 20.3064 72.392 19.9544 72.392C19.6344 72.392 19.3304 72.4507 19.0424 72.568C18.765 72.6747 18.5197 72.824 18.3064 73.016C18.1037 73.208 17.933 73.4373 17.7944 73.704C17.6664 73.96 17.5917 74.2373 17.5704 74.536H22.0824ZM23.6024 75.144C23.6024 75.2293 23.6024 75.3147 23.6024 75.4C23.6024 75.4853 23.597 75.5707 23.5864 75.656H17.5704C17.581 75.976 17.6504 76.28 17.7784 76.568C17.917 76.8453 18.0984 77.0907 18.3224 77.304C18.5464 77.5067 18.8024 77.6667 19.0904 77.784C19.389 77.9013 19.7037 77.96 20.0344 77.96C20.5464 77.96 20.989 77.848 21.3624 77.624C21.7357 77.4 22.029 77.128 22.2424 76.808L23.2984 77.656C22.893 78.1893 22.413 78.584 21.8584 78.84C21.3144 79.0853 20.7064 79.208 20.0344 79.208C19.4584 79.208 18.925 79.112 18.4344 78.92C17.9437 78.728 17.5224 78.4613 17.1704 78.12C16.8184 77.768 16.541 77.3467 16.3384 76.856C16.1357 76.3653 16.0344 75.8213 16.0344 75.224C16.0344 74.6373 16.1304 74.0987 16.3224 73.608C16.525 73.1067 16.8024 72.68 17.1544 72.328C17.5064 71.976 17.9224 71.704 18.4024 71.512C18.8824 71.3093 19.3997 71.208 19.9544 71.208C20.509 71.208 21.0104 71.2987 21.4584 71.48C21.917 71.6613 22.301 71.9227 22.6104 72.264C22.9304 72.6053 23.1757 73.0213 23.3464 73.512C23.517 73.992 23.6024 74.536 23.6024 75.144ZM27.1903 77.8V79H25.7343V66.904H27.2383V72.552H27.2863C27.5423 72.1787 27.8996 71.864 28.3583 71.608C28.8169 71.3413 29.3609 71.208 29.9903 71.208C30.5556 71.208 31.0676 71.3093 31.5263 71.512C31.9956 71.7147 32.3956 71.9973 32.7263 72.36C33.0676 72.7227 33.3289 73.1493 33.5103 73.64C33.6916 74.12 33.7823 74.6373 33.7823 75.192C33.7823 75.7467 33.6916 76.2693 33.5103 76.76C33.3289 77.2507 33.0729 77.6773 32.7423 78.04C32.4116 78.4027 32.0116 78.6907 31.5423 78.904C31.0729 79.1067 30.5449 79.208 29.9583 79.208C29.4143 79.208 28.8969 79.0907 28.4062 78.856C27.9156 78.6107 27.5209 78.2587 27.2223 77.8H27.1903ZM32.2303 75.192C32.2303 74.84 32.1769 74.4987 32.0703 74.168C31.9636 73.8373 31.8036 73.544 31.5903 73.288C31.3769 73.032 31.1103 72.8293 30.7903 72.68C30.4809 72.5307 30.1183 72.456 29.7023 72.456C29.3183 72.456 28.9663 72.5307 28.6463 72.68C28.3369 72.8293 28.0703 73.032 27.8463 73.288C27.6223 73.544 27.4463 73.8373 27.3183 74.168C27.2009 74.4987 27.1423 74.8453 27.1423 75.208C27.1423 75.5707 27.2009 75.9173 27.3183 76.248C27.4463 76.5787 27.6223 76.872 27.8463 77.128C28.0703 77.3733 28.3369 77.5707 28.6463 77.72C28.9663 77.8693 29.3183 77.944 29.7023 77.944C30.1183 77.944 30.4809 77.8693 30.7903 77.72C31.1103 77.56 31.3769 77.352 31.5903 77.096C31.8036 76.84 31.9636 76.5467 32.0703 76.216C32.1769 75.8853 32.2303 75.544 32.2303 75.192ZM39.9701 73.336C39.7995 73.0587 39.5595 72.8347 39.2501 72.664C38.9408 72.4827 38.5941 72.392 38.2101 72.392C38.0395 72.392 37.8688 72.4133 37.6981 72.456C37.5275 72.488 37.3728 72.5467 37.2341 72.632C37.1061 72.7067 36.9995 72.808 36.9141 72.936C36.8395 73.0533 36.8021 73.2027 36.8021 73.384C36.8021 73.704 36.9461 73.944 37.2341 74.104C37.5221 74.2533 37.9541 74.392 38.5301 74.52C38.8928 74.6053 39.2288 74.7067 39.5381 74.824C39.8475 74.9413 40.1141 75.0907 40.3381 75.272C40.5728 75.4427 40.7541 75.6507 40.8821 75.896C41.0101 76.1413 41.0741 76.4293 41.0741 76.76C41.0741 77.208 40.9888 77.5867 40.8181 77.896C40.6475 78.2053 40.4181 78.4613 40.1301 78.664C39.8528 78.856 39.5328 78.9947 39.1701 79.08C38.8075 79.1653 38.4341 79.208 38.0501 79.208C37.4741 79.208 36.9088 79.096 36.3541 78.872C35.8101 78.648 35.3568 78.3067 34.9941 77.848L36.0661 76.936C36.2688 77.2347 36.5461 77.4853 36.8981 77.688C37.2608 77.8907 37.6555 77.992 38.0821 77.992C38.2741 77.992 38.4555 77.976 38.6261 77.944C38.8075 77.9013 38.9675 77.8373 39.1061 77.752C39.2555 77.6667 39.3728 77.5547 39.4581 77.416C39.5435 77.2773 39.5861 77.1013 39.5861 76.888C39.5861 76.536 39.4155 76.2747 39.0741 76.104C38.7435 75.9333 38.2528 75.7733 37.6021 75.624C37.3461 75.56 37.0848 75.4853 36.8181 75.4C36.5621 75.304 36.3275 75.176 36.1141 75.016C35.9008 74.856 35.7248 74.6587 35.5861 74.424C35.4581 74.1787 35.3941 73.88 35.3941 73.528C35.3941 73.1227 35.4741 72.776 35.6341 72.488C35.8048 72.1893 36.0235 71.9493 36.2901 71.768C36.5568 71.576 36.8608 71.4373 37.2021 71.352C37.5435 71.256 37.8955 71.208 38.2581 71.208C38.8021 71.208 39.3248 71.3147 39.8261 71.528C40.3381 71.7413 40.7328 72.0507 41.0101 72.456L39.9701 73.336ZM44.5035 79H42.9995V71.416H44.5035V79ZM44.7595 68.68C44.7595 68.9573 44.6582 69.1867 44.4555 69.368C44.2635 69.5493 44.0288 69.64 43.7515 69.64C43.4742 69.64 43.2395 69.5493 43.0475 69.368C42.8555 69.176 42.7595 68.9467 42.7595 68.68C42.7595 68.4027 42.8555 68.1733 43.0475 67.992C43.2395 67.8 43.4742 67.704 43.7515 67.704C44.0288 67.704 44.2635 67.8 44.4555 67.992C44.6582 68.1733 44.7595 68.4027 44.7595 68.68ZM50.8361 72.648H48.8201V76.6C48.8201 77.0587 48.9055 77.3893 49.0761 77.592C49.2468 77.784 49.5188 77.88 49.8921 77.88C50.0308 77.88 50.1801 77.864 50.3401 77.832C50.5001 77.8 50.6441 77.752 50.7721 77.688L50.8201 78.92C50.6388 78.984 50.4361 79.032 50.2121 79.064C49.9988 79.1067 49.7748 79.128 49.5401 79.128C48.8255 79.128 48.2761 78.9307 47.8921 78.536C47.5188 78.1413 47.3321 77.5493 47.3321 76.76V72.648H45.8761V71.416H47.3321V69.24H48.8201V71.416H50.8361V72.648ZM57.9418 74.536C57.9311 74.2373 57.8778 73.96 57.7818 73.704C57.6964 73.4373 57.5631 73.208 57.3818 73.016C57.2111 72.824 56.9924 72.6747 56.7258 72.568C56.4698 72.4507 56.1658 72.392 55.8138 72.392C55.4938 72.392 55.1898 72.4507 54.9018 72.568C54.6244 72.6747 54.3791 72.824 54.1658 73.016C53.9631 73.208 53.7924 73.4373 53.6538 73.704C53.5258 73.96 53.4511 74.2373 53.4298 74.536H57.9418ZM59.4618 75.144C59.4618 75.2293 59.4618 75.3147 59.4618 75.4C59.4618 75.4853 59.4564 75.5707 59.4458 75.656H53.4298C53.4404 75.976 53.5098 76.28 53.6378 76.568C53.7764 76.8453 53.9578 77.0907 54.1818 77.304C54.4058 77.5067 54.6618 77.6667 54.9498 77.784C55.2484 77.9013 55.5631 77.96 55.8938 77.96C56.4058 77.96 56.8484 77.848 57.2218 77.624C57.5951 77.4 57.8884 77.128 58.1018 76.808L59.1578 77.656C58.7524 78.1893 58.2724 78.584 57.7178 78.84C57.1738 79.0853 56.5658 79.208 55.8938 79.208C55.3178 79.208 54.7844 79.112 54.2938 78.92C53.8031 78.728 53.3818 78.4613 53.0298 78.12C52.6778 77.768 52.4004 77.3467 52.1978 76.856C51.9951 76.3653 51.8938 75.8213 51.8938 75.224C51.8938 74.6373 51.9898 74.0987 52.1818 73.608C52.3844 73.1067 52.6618 72.68 53.0138 72.328C53.3658 71.976 53.7818 71.704 54.2618 71.512C54.7418 71.3093 55.2591 71.208 55.8138 71.208C56.3684 71.208 56.8698 71.2987 57.3178 71.48C57.7764 71.6613 58.1604 71.9227 58.4698 72.264C58.7898 72.6053 59.0351 73.0213 59.2058 73.512C59.3764 73.992 59.4618 74.536 59.4618 75.144ZM65.6576 73.336C65.487 73.0587 65.247 72.8347 64.9376 72.664C64.6283 72.4827 64.2816 72.392 63.8976 72.392C63.727 72.392 63.5563 72.4133 63.3856 72.456C63.215 72.488 63.0603 72.5467 62.9216 72.632C62.7936 72.7067 62.687 72.808 62.6016 72.936C62.527 73.0533 62.4896 73.2027 62.4896 73.384C62.4896 73.704 62.6336 73.944 62.9216 74.104C63.2096 74.2533 63.6416 74.392 64.2176 74.52C64.5803 74.6053 64.9163 74.7067 65.2256 74.824C65.535 74.9413 65.8016 75.0907 66.0256 75.272C66.2603 75.4427 66.4416 75.6507 66.5696 75.896C66.6976 76.1413 66.7616 76.4293 66.7616 76.76C66.7616 77.208 66.6763 77.5867 66.5056 77.896C66.335 78.2053 66.1056 78.4613 65.8176 78.664C65.5403 78.856 65.2203 78.9947 64.8576 79.08C64.495 79.1653 64.1216 79.208 63.7376 79.208C63.1616 79.208 62.5963 79.096 62.0416 78.872C61.4976 78.648 61.0443 78.3067 60.6816 77.848L61.7536 76.936C61.9563 77.2347 62.2336 77.4853 62.5856 77.688C62.9483 77.8907 63.343 77.992 63.7696 77.992C63.9616 77.992 64.143 77.976 64.3136 77.944C64.495 77.9013 64.655 77.8373 64.7936 77.752C64.943 77.6667 65.0603 77.5547 65.1456 77.416C65.231 77.2773 65.2736 77.1013 65.2736 76.888C65.2736 76.536 65.103 76.2747 64.7616 76.104C64.431 75.9333 63.9403 75.7733 63.2896 75.624C63.0336 75.56 62.7723 75.4853 62.5056 75.4C62.2496 75.304 62.015 75.176 61.8016 75.016C61.5883 74.856 61.4123 74.6587 61.2736 74.424C61.1456 74.1787 61.0816 73.88 61.0816 73.528C61.0816 73.1227 61.1616 72.776 61.3216 72.488C61.4923 72.1893 61.711 71.9493 61.9776 71.768C62.2443 71.576 62.5483 71.4373 62.8896 71.352C63.231 71.256 63.583 71.208 63.9456 71.208C64.4896 71.208 65.0123 71.3147 65.5136 71.528C66.0256 71.7413 66.4203 72.0507 66.6976 72.456L65.6576 73.336ZM69.199 81.128H67.919L69.023 77.128H70.527L69.199 81.128ZM82.0549 69.768C81.8309 69.4587 81.5269 69.208 81.1429 69.016C80.7589 68.8133 80.3269 68.712 79.8469 68.712C79.5909 68.712 79.3295 68.7493 79.0629 68.824C78.8069 68.888 78.5722 69 78.3589 69.16C78.1455 69.3093 77.9695 69.5013 77.8309 69.736C77.7029 69.96 77.6389 70.232 77.6389 70.552C77.6389 70.8613 77.6975 71.1227 77.8149 71.336C77.9429 71.5387 78.1082 71.7147 78.3109 71.864C78.5242 72.0027 78.7695 72.1253 79.0469 72.232C79.3349 72.328 79.6389 72.4293 79.9589 72.536C80.3429 72.6533 80.7322 72.7867 81.1269 72.936C81.5215 73.0853 81.8789 73.2827 82.1989 73.528C82.5189 73.7733 82.7802 74.0827 82.9829 74.456C83.1855 74.8187 83.2869 75.2827 83.2869 75.848C83.2869 76.4347 83.1749 76.9467 82.9509 77.384C82.7375 77.8107 82.4495 78.168 82.0869 78.456C81.7242 78.7333 81.3029 78.9413 80.8229 79.08C80.3535 79.2187 79.8682 79.288 79.3669 79.288C78.6522 79.288 77.9589 79.1493 77.2869 78.872C76.6255 78.5947 76.0762 78.184 75.6389 77.64L76.8709 76.6C77.1375 76.9947 77.4949 77.3147 77.9429 77.56C78.3909 77.8053 78.8762 77.928 79.3989 77.928C79.6655 77.928 79.9322 77.8907 80.1989 77.816C80.4655 77.7413 80.7055 77.624 80.9189 77.464C81.1429 77.304 81.3242 77.1067 81.4629 76.872C81.6015 76.6267 81.6709 76.3333 81.6709 75.992C81.6709 75.6507 81.5962 75.368 81.4469 75.144C81.3082 74.9093 81.1162 74.712 80.8709 74.552C80.6255 74.392 80.3375 74.2587 80.0069 74.152C79.6869 74.0347 79.3455 73.9173 78.9829 73.8C78.6202 73.6933 78.2629 73.5653 77.9109 73.416C77.5589 73.256 77.2442 73.0587 76.9669 72.824C76.6895 72.5787 76.4655 72.28 76.2949 71.928C76.1242 71.576 76.0389 71.1387 76.0389 70.616C76.0389 70.0507 76.1509 69.5653 76.3749 69.16C76.6095 68.7547 76.9082 68.4187 77.2709 68.152C77.6442 67.8853 78.0602 67.6933 78.5189 67.576C78.9882 67.448 79.4575 67.384 79.9269 67.384C80.5882 67.384 81.2069 67.5013 81.7829 67.736C82.3589 67.9707 82.8229 68.2853 83.1749 68.68L82.0549 69.768ZM93.1323 75.192C93.1323 75.7787 93.0256 76.3173 92.8123 76.808C92.6096 77.2987 92.3216 77.7253 91.9483 78.088C91.5856 78.44 91.1536 78.7173 90.6523 78.92C90.1509 79.112 89.6123 79.208 89.0363 79.208C88.4603 79.208 87.9216 79.112 87.4203 78.92C86.9189 78.7173 86.4869 78.44 86.1243 78.088C85.7616 77.7253 85.4736 77.2987 85.2603 76.808C85.0576 76.3173 84.9563 75.7787 84.9563 75.192C84.9563 74.6053 85.0576 74.072 85.2603 73.592C85.4736 73.1013 85.7616 72.68 86.1243 72.328C86.4869 71.976 86.9189 71.704 87.4203 71.512C87.9216 71.3093 88.4603 71.208 89.0363 71.208C89.6123 71.208 90.1509 71.3093 90.6523 71.512C91.1536 71.704 91.5856 71.976 91.9483 72.328C92.3216 72.68 92.6096 73.1013 92.8123 73.592C93.0256 74.072 93.1323 74.6053 93.1323 75.192ZM91.5643 75.192C91.5643 74.8293 91.5056 74.4827 91.3883 74.152C91.2816 73.8213 91.1216 73.5333 90.9083 73.288C90.6949 73.032 90.4283 72.8293 90.1083 72.68C89.7989 72.5307 89.4416 72.456 89.0363 72.456C88.6309 72.456 88.2683 72.5307 87.9483 72.68C87.6389 72.8293 87.3776 73.032 87.1643 73.288C86.9509 73.5333 86.7856 73.8213 86.6683 74.152C86.5616 74.4827 86.5082 74.8293 86.5082 75.192C86.5082 75.5547 86.5616 75.9013 86.6683 76.232C86.7856 76.5627 86.9509 76.856 87.1643 77.112C87.3776 77.368 87.6389 77.5707 87.9483 77.72C88.2683 77.8693 88.6309 77.944 89.0363 77.944C89.4416 77.944 89.7989 77.8693 90.1083 77.72C90.4283 77.5707 90.6949 77.368 90.9083 77.112C91.1216 76.856 91.2816 76.5627 91.3883 76.232C91.5056 75.9013 91.5643 75.5547 91.5643 75.192ZM98.7859 72.648H97.0259V79H95.5219V72.648H94.0179V71.416H95.5219V69.832C95.5219 69.384 95.5699 68.9733 95.6659 68.6C95.7725 68.216 95.9379 67.8853 96.1619 67.608C96.3965 67.3307 96.6899 67.112 97.0419 66.952C97.4045 66.792 97.8419 66.712 98.3539 66.712C98.7165 66.712 99.0312 66.7493 99.2979 66.824L99.1219 68.12C99.0045 68.088 98.8872 68.0613 98.7699 68.04C98.6525 68.0187 98.5192 68.008 98.3699 68.008C98.0819 68.008 97.8472 68.0613 97.6659 68.168C97.4952 68.264 97.3619 68.3973 97.2659 68.568C97.1699 68.7387 97.1059 68.936 97.0739 69.16C97.0419 69.3733 97.0259 69.5973 97.0259 69.832V71.416H98.7859V72.648ZM103.649 72.648H101.633V76.6C101.633 77.0587 101.718 77.3893 101.889 77.592C102.059 77.784 102.331 77.88 102.705 77.88C102.843 77.88 102.993 77.864 103.153 77.832C103.313 77.8 103.457 77.752 103.585 77.688L103.633 78.92C103.451 78.984 103.249 79.032 103.025 79.064C102.811 79.1067 102.587 79.128 102.353 79.128C101.638 79.128 101.089 78.9307 100.705 78.536C100.331 78.1413 100.145 77.5493 100.145 76.76V72.648H98.6886V71.416H100.145V69.24H101.633V71.416H103.649V72.648ZM105.762 71.416L107.474 77.208H107.506L109.314 71.416H110.898L112.738 77.208H112.77L114.482 71.416H116.066L113.554 79H111.986L110.114 73.304H110.082L108.226 79H106.658L104.13 71.416H105.762ZM122.297 74.088C122.297 73.5227 122.127 73.1067 121.785 72.84C121.444 72.5627 120.991 72.424 120.425 72.424C119.999 72.424 119.593 72.5093 119.209 72.68C118.836 72.84 118.521 73.048 118.265 73.304L117.465 72.344C117.839 71.992 118.292 71.7147 118.825 71.512C119.369 71.3093 119.951 71.208 120.569 71.208C121.113 71.208 121.583 71.288 121.977 71.448C122.383 71.5973 122.713 71.8053 122.969 72.072C123.225 72.3387 123.417 72.6533 123.545 73.016C123.673 73.3787 123.737 73.768 123.737 74.184V77.496C123.737 77.752 123.743 78.024 123.753 78.312C123.775 78.5893 123.807 78.8187 123.849 79H122.489C122.404 78.6373 122.361 78.2747 122.361 77.912H122.313C122.036 78.3173 121.684 78.632 121.257 78.856C120.841 79.08 120.345 79.192 119.769 79.192C119.471 79.192 119.156 79.1493 118.825 79.064C118.505 78.9893 118.212 78.8613 117.945 78.68C117.679 78.4987 117.455 78.2587 117.273 77.96C117.103 77.6613 117.017 77.2933 117.017 76.856C117.017 76.28 117.172 75.8267 117.481 75.496C117.791 75.1547 118.196 74.8987 118.697 74.728C119.199 74.5467 119.764 74.4293 120.393 74.376C121.023 74.3227 121.657 74.296 122.297 74.296V74.088ZM121.929 75.384C121.556 75.384 121.167 75.4 120.761 75.432C120.367 75.464 120.004 75.528 119.673 75.624C119.353 75.72 119.087 75.864 118.873 76.056C118.66 76.248 118.553 76.504 118.553 76.824C118.553 77.048 118.596 77.2347 118.681 77.384C118.777 77.5333 118.9 77.656 119.049 77.752C119.199 77.848 119.364 77.9173 119.545 77.96C119.727 77.992 119.913 78.008 120.105 78.008C120.809 78.008 121.348 77.8 121.721 77.384C122.105 76.9573 122.297 76.424 122.297 75.784V75.384H121.929ZM126.249 73.048C126.249 72.8453 126.244 72.584 126.233 72.264C126.222 71.944 126.206 71.6613 126.185 71.416H127.609C127.63 71.608 127.646 71.832 127.657 72.088C127.668 72.3333 127.673 72.536 127.673 72.696H127.721C127.934 72.248 128.244 71.8907 128.649 71.624C129.065 71.3467 129.529 71.208 130.041 71.208C130.276 71.208 130.473 71.2293 130.633 71.272L130.569 72.664C130.356 72.6107 130.126 72.584 129.881 72.584C129.518 72.584 129.204 72.6533 128.937 72.792C128.67 72.92 128.446 73.096 128.265 73.32C128.094 73.544 127.966 73.8053 127.881 74.104C127.796 74.392 127.753 74.696 127.753 75.016V79H126.249V73.048ZM137.317 74.536C137.306 74.2373 137.253 73.96 137.157 73.704C137.071 73.4373 136.938 73.208 136.757 73.016C136.586 72.824 136.367 72.6747 136.101 72.568C135.845 72.4507 135.541 72.392 135.189 72.392C134.869 72.392 134.565 72.4507 134.277 72.568C133.999 72.6747 133.754 72.824 133.541 73.016C133.338 73.208 133.167 73.4373 133.029 73.704C132.901 73.96 132.826 74.2373 132.805 74.536H137.317ZM138.837 75.144C138.837 75.2293 138.837 75.3147 138.837 75.4C138.837 75.4853 138.831 75.5707 138.821 75.656H132.805C132.815 75.976 132.885 76.28 133.013 76.568C133.151 76.8453 133.333 77.0907 133.557 77.304C133.781 77.5067 134.037 77.6667 134.325 77.784C134.623 77.9013 134.938 77.96 135.269 77.96C135.781 77.96 136.223 77.848 136.597 77.624C136.97 77.4 137.263 77.128 137.477 76.808L138.533 77.656C138.127 78.1893 137.647 78.584 137.093 78.84C136.549 79.0853 135.941 79.208 135.269 79.208C134.693 79.208 134.159 79.112 133.669 78.92C133.178 78.728 132.757 78.4613 132.405 78.12C132.053 77.768 131.775 77.3467 131.573 76.856C131.37 76.3653 131.269 75.8213 131.269 75.224C131.269 74.6373 131.365 74.0987 131.557 73.608C131.759 73.1067 132.037 72.68 132.389 72.328C132.741 71.976 133.157 71.704 133.637 71.512C134.117 71.3093 134.634 71.208 135.189 71.208C135.743 71.208 136.245 71.2987 136.693 71.48C137.151 71.6613 137.535 71.9227 137.845 72.264C138.165 72.6053 138.41 73.0213 138.581 73.512C138.751 73.992 138.837 74.536 138.837 75.144ZM145.033 73.336C144.862 73.0587 144.622 72.8347 144.313 72.664C144.003 72.4827 143.657 72.392 143.273 72.392C143.102 72.392 142.931 72.4133 142.761 72.456C142.59 72.488 142.435 72.5467 142.297 72.632C142.169 72.7067 142.062 72.808 141.977 72.936C141.902 73.0533 141.865 73.2027 141.865 73.384C141.865 73.704 142.009 73.944 142.297 74.104C142.585 74.2533 143.017 74.392 143.593 74.52C143.955 74.6053 144.291 74.7067 144.601 74.824C144.91 74.9413 145.177 75.0907 145.401 75.272C145.635 75.4427 145.817 75.6507 145.945 75.896C146.073 76.1413 146.137 76.4293 146.137 76.76C146.137 77.208 146.051 77.5867 145.881 77.896C145.71 78.2053 145.481 78.4613 145.193 78.664C144.915 78.856 144.595 78.9947 144.233 79.08C143.87 79.1653 143.497 79.208 143.113 79.208C142.537 79.208 141.971 79.096 141.417 78.872C140.873 78.648 140.419 78.3067 140.057 77.848L141.129 76.936C141.331 77.2347 141.609 77.4853 141.961 77.688C142.323 77.8907 142.718 77.992 143.145 77.992C143.337 77.992 143.518 77.976 143.689 77.944C143.87 77.9013 144.03 77.8373 144.169 77.752C144.318 77.6667 144.435 77.5547 144.521 77.416C144.606 77.2773 144.649 77.1013 144.649 76.888C144.649 76.536 144.478 76.2747 144.137 76.104C143.806 75.9333 143.315 75.7733 142.665 75.624C142.409 75.56 142.147 75.4853 141.881 75.4C141.625 75.304 141.39 75.176 141.177 75.016C140.963 74.856 140.787 74.6587 140.649 74.424C140.521 74.1787 140.457 73.88 140.457 73.528C140.457 73.1227 140.537 72.776 140.697 72.488C140.867 72.1893 141.086 71.9493 141.353 71.768C141.619 71.576 141.923 71.4373 142.265 71.352C142.606 71.256 142.958 71.208 143.321 71.208C143.865 71.208 144.387 71.3147 144.889 71.528C145.401 71.7413 145.795 72.0507 146.073 72.456L145.033 73.336ZM159.55 76.328L162.142 79H160.046L158.638 77.512C158.211 78.0453 157.726 78.4613 157.182 78.76C156.649 79.0587 155.987 79.208 155.198 79.208C154.707 79.208 154.238 79.1387 153.79 79C153.342 78.8613 152.947 78.6587 152.606 78.392C152.275 78.1147 152.009 77.7787 151.806 77.384C151.614 76.9787 151.518 76.5147 151.518 75.992C151.518 75.5653 151.587 75.1867 151.726 74.856C151.875 74.5147 152.067 74.2107 152.302 73.944C152.537 73.6773 152.809 73.4427 153.118 73.24C153.427 73.0373 153.742 72.8613 154.062 72.712C153.699 72.3387 153.39 71.944 153.134 71.528C152.889 71.1013 152.766 70.632 152.766 70.12C152.766 69.6613 152.846 69.2613 153.006 68.92C153.177 68.5787 153.401 68.296 153.678 68.072C153.966 67.8373 154.291 67.6667 154.654 67.56C155.017 67.4427 155.395 67.384 155.79 67.384C156.185 67.384 156.558 67.4427 156.91 67.56C157.262 67.6667 157.571 67.832 157.838 68.056C158.105 68.28 158.318 68.5573 158.478 68.888C158.638 69.2187 158.718 69.6027 158.718 70.04C158.718 70.4133 158.649 70.7493 158.51 71.048C158.382 71.3467 158.206 71.6187 157.982 71.864C157.758 72.1093 157.497 72.328 157.198 72.52C156.91 72.712 156.606 72.8827 156.286 73.032L158.542 75.352L159.966 72.952H161.726L159.55 76.328ZM157.262 70.072C157.262 69.6667 157.123 69.3253 156.846 69.048C156.579 68.7707 156.233 68.632 155.806 68.632C155.369 68.632 155.006 68.7707 154.718 69.048C154.43 69.3253 154.286 69.688 154.286 70.136C154.286 70.3173 154.318 70.4987 154.382 70.68C154.457 70.8613 154.547 71.0427 154.654 71.224C154.761 71.3947 154.878 71.5547 155.006 71.704C155.145 71.8533 155.278 71.9867 155.406 72.104C155.641 71.9973 155.87 71.88 156.094 71.752C156.318 71.624 156.515 71.4747 156.686 71.304C156.857 71.1333 156.995 70.9467 157.102 70.744C157.209 70.5413 157.262 70.3173 157.262 70.072ZM154.942 73.688C154.387 73.9227 153.945 74.216 153.614 74.568C153.283 74.92 153.118 75.384 153.118 75.96C153.118 76.2587 153.177 76.5307 153.294 76.776C153.411 77.0213 153.566 77.2293 153.758 77.4C153.961 77.5707 154.19 77.704 154.446 77.8C154.702 77.8853 154.963 77.928 155.23 77.928C155.774 77.928 156.233 77.8107 156.606 77.576C156.979 77.3307 157.321 76.9733 157.63 76.504L154.942 73.688ZM167.871 79H166.111L171.023 67.672H172.463L177.327 79H175.535L174.383 76.216H169.007L167.871 79ZM169.567 74.824H173.807L171.695 69.512L169.567 74.824ZM180.206 82.84H178.702V71.416H180.174V72.6H180.222C180.468 72.1947 180.825 71.864 181.294 71.608C181.774 71.3413 182.329 71.208 182.958 71.208C183.524 71.208 184.036 71.3093 184.494 71.512C184.964 71.7147 185.364 71.9973 185.694 72.36C186.036 72.7227 186.297 73.1493 186.478 73.64C186.66 74.12 186.75 74.6373 186.75 75.192C186.75 75.7467 186.66 76.2693 186.478 76.76C186.297 77.2507 186.041 77.6773 185.71 78.04C185.38 78.4027 184.98 78.6907 184.51 78.904C184.041 79.1067 183.513 79.208 182.926 79.208C182.382 79.208 181.87 79.0907 181.39 78.856C180.91 78.6213 180.532 78.2907 180.254 77.864H180.206V82.84ZM185.198 75.192C185.198 74.84 185.145 74.4987 185.038 74.168C184.932 73.8373 184.772 73.544 184.558 73.288C184.345 73.032 184.078 72.8293 183.758 72.68C183.449 72.5307 183.086 72.456 182.67 72.456C182.286 72.456 181.934 72.5307 181.614 72.68C181.305 72.8293 181.038 73.032 180.814 73.288C180.59 73.544 180.414 73.8373 180.286 74.168C180.169 74.4987 180.11 74.8453 180.11 75.208C180.11 75.5707 180.169 75.9173 180.286 76.248C180.414 76.5787 180.59 76.872 180.814 77.128C181.038 77.3733 181.305 77.5707 181.614 77.72C181.934 77.8693 182.286 77.944 182.67 77.944C183.086 77.944 183.449 77.8693 183.758 77.72C184.078 77.56 184.345 77.352 184.558 77.096C184.772 76.84 184.932 76.5467 185.038 76.216C185.145 75.8853 185.198 75.544 185.198 75.192ZM190.347 82.84H188.843V71.416H190.315V72.6H190.363C190.608 72.1947 190.966 71.864 191.435 71.608C191.915 71.3413 192.47 71.208 193.099 71.208C193.664 71.208 194.176 71.3093 194.635 71.512C195.104 71.7147 195.504 71.9973 195.835 72.36C196.176 72.7227 196.438 73.1493 196.619 73.64C196.8 74.12 196.891 74.6373 196.891 75.192C196.891 75.7467 196.8 76.2693 196.619 76.76C196.438 77.2507 196.182 77.6773 195.851 78.04C195.52 78.4027 195.12 78.6907 194.651 78.904C194.182 79.1067 193.654 79.208 193.067 79.208C192.523 79.208 192.011 79.0907 191.531 78.856C191.051 78.6213 190.672 78.2907 190.395 77.864H190.347V82.84ZM195.339 75.192C195.339 74.84 195.286 74.4987 195.179 74.168C195.072 73.8373 194.912 73.544 194.699 73.288C194.486 73.032 194.219 72.8293 193.899 72.68C193.59 72.5307 193.227 72.456 192.811 72.456C192.427 72.456 192.075 72.5307 191.755 72.68C191.446 72.8293 191.179 73.032 190.955 73.288C190.731 73.544 190.555 73.8373 190.427 74.168C190.31 74.4987 190.251 74.8453 190.251 75.208C190.251 75.5707 190.31 75.9173 190.427 76.248C190.555 76.5787 190.731 76.872 190.955 77.128C191.179 77.3733 191.446 77.5707 191.755 77.72C192.075 77.8693 192.427 77.944 192.811 77.944C193.227 77.944 193.59 77.8693 193.899 77.72C194.219 77.56 194.486 77.352 194.699 77.096C194.912 76.84 195.072 76.5467 195.179 76.216C195.286 75.8853 195.339 75.544 195.339 75.192ZM203.08 73.336C202.909 73.0587 202.669 72.8347 202.36 72.664C202.05 72.4827 201.704 72.392 201.32 72.392C201.149 72.392 200.978 72.4133 200.808 72.456C200.637 72.488 200.482 72.5467 200.344 72.632C200.216 72.7067 200.109 72.808 200.024 72.936C199.949 73.0533 199.912 73.2027 199.912 73.384C199.912 73.704 200.056 73.944 200.344 74.104C200.632 74.2533 201.064 74.392 201.64 74.52C202.002 74.6053 202.338 74.7067 202.648 74.824C202.957 74.9413 203.224 75.0907 203.448 75.272C203.682 75.4427 203.864 75.6507 203.992 75.896C204.12 76.1413 204.184 76.4293 204.184 76.76C204.184 77.208 204.098 77.5867 203.928 77.896C203.757 78.2053 203.528 78.4613 203.24 78.664C202.962 78.856 202.642 78.9947 202.28 79.08C201.917 79.1653 201.544 79.208 201.16 79.208C200.584 79.208 200.018 79.096 199.464 78.872C198.92 78.648 198.466 78.3067 198.104 77.848L199.176 76.936C199.378 77.2347 199.656 77.4853 200.008 77.688C200.37 77.8907 200.765 77.992 201.192 77.992C201.384 77.992 201.565 77.976 201.736 77.944C201.917 77.9013 202.077 77.8373 202.216 77.752C202.365 77.6667 202.482 77.5547 202.568 77.416C202.653 77.2773 202.696 77.1013 202.696 76.888C202.696 76.536 202.525 76.2747 202.184 76.104C201.853 75.9333 201.362 75.7733 200.712 75.624C200.456 75.56 200.194 75.4853 199.928 75.4C199.672 75.304 199.437 75.176 199.224 75.016C199.01 74.856 198.834 74.6587 198.696 74.424C198.568 74.1787 198.504 73.88 198.504 73.528C198.504 73.1227 198.584 72.776 198.743 72.488C198.914 72.1893 199.133 71.9493 199.4 71.768C199.666 71.576 199.97 71.4373 200.312 71.352C200.653 71.256 201.005 71.208 201.368 71.208C201.912 71.208 202.434 71.3147 202.936 71.528C203.448 71.7413 203.842 72.0507 204.12 72.456L203.08 73.336ZM207.949 78.04C207.949 78.3173 207.848 78.5627 207.645 78.776C207.442 78.9893 207.186 79.096 206.877 79.096C206.578 79.096 206.322 78.9947 206.109 78.792C205.906 78.5787 205.805 78.3333 205.805 78.056C205.805 77.768 205.906 77.5227 206.109 77.32C206.312 77.1067 206.568 77 206.877 77C207.186 77 207.442 77.1013 207.645 77.304C207.848 77.5067 207.949 77.752 207.949 78.04Z" fill="#2557AB"/>
</svg>
