<svg width="147" height="85" viewBox="0 0 147 85" fill="none" xmlns="http://www.w3.org/2000/svg">
<g clip-path="url(#clip0_0_5)">
<path d="M16.468 46H13.156V17.526L7.268 22.54L5.244 20.24L13.524 13.432H16.468V46ZM48.5336 16.376H34.9636L34.7336 26.45C35.4389 26.2047 36.1749 26.0207 36.9416 25.898C37.7389 25.7753 38.5056 25.714 39.2416 25.714C40.7749 25.714 42.1856 25.9593 43.4736 26.45C44.7616 26.9407 45.8809 27.646 46.8316 28.566C47.7823 29.4553 48.5183 30.5287 49.0396 31.786C49.5609 33.0433 49.8216 34.4233 49.8216 35.926C49.8216 37.49 49.5609 38.9467 49.0396 40.296C48.5183 41.6147 47.7823 42.7647 46.8316 43.746C45.8809 44.6967 44.7309 45.448 43.3816 46C42.0629 46.552 40.6063 46.828 39.0116 46.828C36.6503 46.828 34.6569 46.2913 33.0316 45.218C31.4063 44.1447 30.1489 42.7033 29.2596 40.894L32.2496 39.56C32.8323 40.9093 33.7063 41.9827 34.8716 42.78C36.0676 43.5773 37.3863 43.976 38.8276 43.976C39.9316 43.976 40.9436 43.792 41.8636 43.424C42.8143 43.0253 43.6269 42.4887 44.3016 41.814C44.9763 41.1087 45.4976 40.2807 45.8656 39.33C46.2643 38.3793 46.4636 37.352 46.4636 36.248C46.4636 35.052 46.2489 33.9787 45.8196 33.028C45.4209 32.0467 44.8536 31.2187 44.1176 30.544C43.4123 29.8693 42.5689 29.348 41.5876 28.98C40.6063 28.612 39.5329 28.428 38.3676 28.428C37.2023 28.428 36.0369 28.5967 34.8716 28.934C33.7369 29.2407 32.6483 29.67 31.6056 30.222L31.9276 13.432H48.5336V16.376ZM64.9132 42.642H65.0052L71.6752 24.472H75.0792L64.3612 51.566C63.7172 53.222 62.8892 54.5407 61.8772 55.522C60.8959 56.534 59.4699 57.04 57.5992 57.04C56.6485 57.04 55.7132 56.948 54.7932 56.764L55.1152 53.912C55.8512 54.1573 56.6179 54.28 57.4152 54.28C58.4885 54.28 59.3319 53.9427 59.9452 53.268C60.5585 52.624 61.0952 51.6887 61.5552 50.462L63.3032 45.954L54.1032 24.472H57.5992L64.9132 42.642ZM79.9681 29.21C79.9681 28.6273 79.9528 27.876 79.9221 26.956C79.8915 26.036 79.8455 25.208 79.7841 24.472H82.7741C82.8355 25.0547 82.8815 25.6987 82.9121 26.404C82.9428 27.1093 82.9581 27.692 82.9581 28.152H83.0501C83.6635 26.8947 84.5835 25.8827 85.8101 25.116C87.0368 24.3187 88.4168 23.92 89.9501 23.92C90.3488 23.92 90.7015 23.9353 91.0081 23.966C91.3455 23.9967 91.6828 24.058 92.0201 24.15L91.6061 27.094C91.4221 27.0327 91.1155 26.9713 90.6861 26.91C90.2568 26.8487 89.8275 26.818 89.3981 26.818C88.5701 26.818 87.7728 26.9713 87.0061 27.278C86.2395 27.5847 85.5648 28.0753 84.9821 28.75C84.4301 29.394 83.9701 30.2373 83.6021 31.28C83.2648 32.292 83.0961 33.5187 83.0961 34.96V46H79.9681V29.21ZM107.998 29.578C107.538 28.6887 106.833 27.968 105.882 27.416C104.962 26.8333 103.904 26.542 102.708 26.542C102.156 26.542 101.604 26.6033 101.052 26.726C100.5 26.8487 100.01 27.048 99.5803 27.324C99.151 27.6 98.7983 27.9527 98.5223 28.382C98.277 28.8113 98.1543 29.3173 98.1543 29.9C98.1543 30.912 98.5683 31.694 99.3963 32.246C100.224 32.7673 101.528 33.212 103.306 33.58C105.852 34.1013 107.722 34.868 108.918 35.88C110.145 36.8613 110.758 38.1953 110.758 39.882C110.758 41.1087 110.513 42.1513 110.022 43.01C109.562 43.838 108.949 44.528 108.182 45.08C107.416 45.6013 106.542 45.9693 105.56 46.184C104.61 46.4293 103.644 46.552 102.662 46.552C101.037 46.552 99.4576 46.2147 97.9243 45.54C96.391 44.8653 95.1336 43.8073 94.1523 42.366L96.6363 40.526C97.1883 41.4767 98.001 42.274 99.0743 42.918C100.148 43.562 101.328 43.884 102.616 43.884C103.291 43.884 103.935 43.8227 104.548 43.7C105.162 43.5773 105.698 43.3627 106.158 43.056C106.618 42.7493 106.986 42.366 107.262 41.906C107.538 41.4153 107.676 40.8173 107.676 40.112C107.676 38.9773 107.124 38.134 106.02 37.582C104.947 36.9993 103.383 36.4627 101.328 35.972C100.684 35.8187 99.9943 35.6347 99.2583 35.42C98.553 35.1747 97.8936 34.8373 97.2803 34.408C96.667 33.948 96.161 33.3807 95.7623 32.706C95.3636 32.0313 95.1643 31.188 95.1643 30.176C95.1643 29.072 95.379 28.1367 95.8083 27.37C96.2376 26.5727 96.805 25.9287 97.5103 25.438C98.2463 24.9167 99.0743 24.5333 99.9943 24.288C100.914 24.0427 101.865 23.92 102.846 23.92C104.349 23.92 105.806 24.2573 107.216 24.932C108.627 25.6067 109.685 26.5573 110.39 27.784L107.998 29.578Z" fill="#13253A"/>
<path d="M129.542 30.682H139.892V33.442H129.542V43.792H126.782V33.442H116.432V30.682H126.782V20.332H129.542V30.682Z" fill="#FF7F57"/>
<path d="M5.792 79H4.192V74.104L-0.048 67.672H1.904L5.04 72.792L8.192 67.672H10.032L5.792 74.104V79ZM15.348 74.536C15.3373 74.2373 15.284 73.96 15.188 73.704C15.1027 73.4373 14.9693 73.208 14.788 73.016C14.6173 72.824 14.3987 72.6747 14.132 72.568C13.876 72.4507 13.572 72.392 13.22 72.392C12.9 72.392 12.596 72.4507 12.308 72.568C12.0307 72.6747 11.7853 72.824 11.572 73.016C11.3693 73.208 11.1987 73.4373 11.06 73.704C10.932 73.96 10.8573 74.2373 10.836 74.536H15.348ZM16.868 75.144C16.868 75.2293 16.868 75.3147 16.868 75.4C16.868 75.4853 16.8627 75.5707 16.852 75.656H10.836C10.8467 75.976 10.916 76.28 11.044 76.568C11.1827 76.8453 11.364 77.0907 11.588 77.304C11.812 77.5067 12.068 77.6667 12.356 77.784C12.6547 77.9013 12.9693 77.96 13.3 77.96C13.812 77.96 14.2547 77.848 14.628 77.624C15.0013 77.4 15.2947 77.128 15.508 76.808L16.564 77.656C16.1587 78.1893 15.6787 78.584 15.124 78.84C14.58 79.0853 13.972 79.208 13.3 79.208C12.724 79.208 12.1907 79.112 11.7 78.92C11.2093 78.728 10.788 78.4613 10.436 78.12C10.084 77.768 9.80667 77.3467 9.604 76.856C9.40133 76.3653 9.3 75.8213 9.3 75.224C9.3 74.6373 9.396 74.0987 9.588 73.608C9.79067 73.1067 10.068 72.68 10.42 72.328C10.772 71.976 11.188 71.704 11.668 71.512C12.148 71.3093 12.6653 71.208 13.22 71.208C13.7747 71.208 14.276 71.2987 14.724 71.48C15.1827 71.6613 15.5667 71.9227 15.876 72.264C16.196 72.6053 16.4413 73.0213 16.612 73.512C16.7827 73.992 16.868 74.536 16.868 75.144ZM23.5941 74.088C23.5941 73.5227 23.4235 73.1067 23.0821 72.84C22.7408 72.5627 22.2875 72.424 21.7221 72.424C21.2955 72.424 20.8901 72.5093 20.5061 72.68C20.1328 72.84 19.8181 73.048 19.5621 73.304L18.7621 72.344C19.1355 71.992 19.5888 71.7147 20.1221 71.512C20.6661 71.3093 21.2475 71.208 21.8661 71.208C22.4101 71.208 22.8795 71.288 23.2741 71.448C23.6795 71.5973 24.0101 71.8053 24.2661 72.072C24.5221 72.3387 24.7141 72.6533 24.8421 73.016C24.9701 73.3787 25.0341 73.768 25.0341 74.184V77.496C25.0341 77.752 25.0395 78.024 25.0501 78.312C25.0715 78.5893 25.1035 78.8187 25.1461 79H23.7861C23.7008 78.6373 23.6581 78.2747 23.6581 77.912H23.6101C23.3328 78.3173 22.9808 78.632 22.5541 78.856C22.1381 79.08 21.6421 79.192 21.0661 79.192C20.7675 79.192 20.4528 79.1493 20.1221 79.064C19.8021 78.9893 19.5088 78.8613 19.2421 78.68C18.9755 78.4987 18.7515 78.2587 18.5701 77.96C18.3995 77.6613 18.3141 77.2933 18.3141 76.856C18.3141 76.28 18.4688 75.8267 18.7781 75.496C19.0875 75.1547 19.4928 74.8987 19.9941 74.728C20.4955 74.5467 21.0608 74.4293 21.6901 74.376C22.3195 74.3227 22.9541 74.296 23.5941 74.296V74.088ZM23.2261 75.384C22.8528 75.384 22.4635 75.4 22.0581 75.432C21.6635 75.464 21.3008 75.528 20.9701 75.624C20.6501 75.72 20.3835 75.864 20.1701 76.056C19.9568 76.248 19.8501 76.504 19.8501 76.824C19.8501 77.048 19.8928 77.2347 19.9781 77.384C20.0741 77.5333 20.1968 77.656 20.3461 77.752C20.4955 77.848 20.6608 77.9173 20.8421 77.96C21.0235 77.992 21.2101 78.008 21.4021 78.008C22.1061 78.008 22.6448 77.8 23.0181 77.384C23.4021 76.9573 23.5941 76.424 23.5941 75.784V75.384H23.2261ZM27.546 73.048C27.546 72.8453 27.5407 72.584 27.53 72.264C27.5193 71.944 27.5033 71.6613 27.482 71.416H28.906C28.9273 71.608 28.9433 71.832 28.954 72.088C28.9647 72.3333 28.97 72.536 28.97 72.696H29.018C29.2313 72.248 29.5407 71.8907 29.946 71.624C30.362 71.3467 30.826 71.208 31.338 71.208C31.5727 71.208 31.77 71.2293 31.93 71.272L31.866 72.664C31.6527 72.6107 31.4233 72.584 31.178 72.584C30.8153 72.584 30.5007 72.6533 30.234 72.792C29.9673 72.92 29.7433 73.096 29.562 73.32C29.3913 73.544 29.2633 73.8053 29.178 74.104C29.0927 74.392 29.05 74.696 29.05 75.016V79H27.546V73.048ZM37.4389 73.336C37.2682 73.0587 37.0282 72.8347 36.7189 72.664C36.4095 72.4827 36.0629 72.392 35.6789 72.392C35.5082 72.392 35.3375 72.4133 35.1669 72.456C34.9962 72.488 34.8415 72.5467 34.7029 72.632C34.5749 72.7067 34.4682 72.808 34.3829 72.936C34.3082 73.0533 34.2709 73.2027 34.2709 73.384C34.2709 73.704 34.4149 73.944 34.7029 74.104C34.9909 74.2533 35.4229 74.392 35.9989 74.52C36.3615 74.6053 36.6975 74.7067 37.0069 74.824C37.3162 74.9413 37.5829 75.0907 37.8069 75.272C38.0415 75.4427 38.2229 75.6507 38.3509 75.896C38.4789 76.1413 38.5429 76.4293 38.5429 76.76C38.5429 77.208 38.4575 77.5867 38.2869 77.896C38.1162 78.2053 37.8869 78.4613 37.5989 78.664C37.3215 78.856 37.0015 78.9947 36.6389 79.08C36.2762 79.1653 35.9029 79.208 35.5189 79.208C34.9429 79.208 34.3775 79.096 33.8229 78.872C33.2789 78.648 32.8255 78.3067 32.4629 77.848L33.5349 76.936C33.7375 77.2347 34.0149 77.4853 34.3669 77.688C34.7295 77.8907 35.1242 77.992 35.5509 77.992C35.7429 77.992 35.9242 77.976 36.0949 77.944C36.2762 77.9013 36.4362 77.8373 36.5749 77.752C36.7242 77.6667 36.8415 77.5547 36.9269 77.416C37.0122 77.2773 37.0549 77.1013 37.0549 76.888C37.0549 76.536 36.8842 76.2747 36.5429 76.104C36.2122 75.9333 35.7215 75.7733 35.0709 75.624C34.8149 75.56 34.5535 75.4853 34.2869 75.4C34.0309 75.304 33.7962 75.176 33.5829 75.016C33.3695 74.856 33.1935 74.6587 33.0549 74.424C32.9269 74.1787 32.8629 73.88 32.8629 73.528C32.8629 73.1227 32.9429 72.776 33.1029 72.488C33.2735 72.1893 33.4922 71.9493 33.7589 71.768C34.0255 71.576 34.3295 71.4373 34.6709 71.352C35.0122 71.256 35.3642 71.208 35.7269 71.208C36.2709 71.208 36.7935 71.3147 37.2949 71.528C37.8069 71.7413 38.2015 72.0507 38.4789 72.456L37.4389 73.336ZM52.1323 75.192C52.1323 75.7787 52.0256 76.3173 51.8123 76.808C51.6096 77.2987 51.3216 77.7253 50.9483 78.088C50.5856 78.44 50.1536 78.7173 49.6523 78.92C49.1509 79.112 48.6123 79.208 48.0363 79.208C47.4603 79.208 46.9216 79.112 46.4203 78.92C45.9189 78.7173 45.4869 78.44 45.1243 78.088C44.7616 77.7253 44.4736 77.2987 44.2603 76.808C44.0576 76.3173 43.9563 75.7787 43.9563 75.192C43.9563 74.6053 44.0576 74.072 44.2603 73.592C44.4736 73.1013 44.7616 72.68 45.1243 72.328C45.4869 71.976 45.9189 71.704 46.4203 71.512C46.9216 71.3093 47.4603 71.208 48.0363 71.208C48.6123 71.208 49.1509 71.3093 49.6523 71.512C50.1536 71.704 50.5856 71.976 50.9483 72.328C51.3216 72.68 51.6096 73.1013 51.8123 73.592C52.0256 74.072 52.1323 74.6053 52.1323 75.192ZM50.5643 75.192C50.5643 74.8293 50.5056 74.4827 50.3883 74.152C50.2816 73.8213 50.1216 73.5333 49.9083 73.288C49.6949 73.032 49.4283 72.8293 49.1083 72.68C48.7989 72.5307 48.4416 72.456 48.0363 72.456C47.6309 72.456 47.2683 72.5307 46.9483 72.68C46.6389 72.8293 46.3776 73.032 46.1643 73.288C45.9509 73.5333 45.7856 73.8213 45.6683 74.152C45.5616 74.4827 45.5082 74.8293 45.5082 75.192C45.5082 75.5547 45.5616 75.9013 45.6683 76.232C45.7856 76.5627 45.9509 76.856 46.1643 77.112C46.3776 77.368 46.6389 77.5707 46.9483 77.72C47.2683 77.8693 47.6309 77.944 48.0363 77.944C48.4416 77.944 48.7989 77.8693 49.1083 77.72C49.4283 77.5707 49.6949 77.368 49.9083 77.112C50.1216 76.856 50.2816 76.5627 50.3883 76.232C50.5056 75.9013 50.5643 75.5547 50.5643 75.192ZM57.7859 72.648H56.0259V79H54.5219V72.648H53.0179V71.416H54.5219V69.832C54.5219 69.384 54.5699 68.9733 54.6659 68.6C54.7725 68.216 54.9379 67.8853 55.1619 67.608C55.3965 67.3307 55.6899 67.112 56.0419 66.952C56.4045 66.792 56.8419 66.712 57.3539 66.712C57.7165 66.712 58.0312 66.7493 58.2979 66.824L58.1219 68.12C58.0045 68.088 57.8872 68.0613 57.7699 68.04C57.6525 68.0187 57.5192 68.008 57.3699 68.008C57.0819 68.008 56.8472 68.0613 56.6659 68.168C56.4952 68.264 56.3619 68.3973 56.2659 68.568C56.1699 68.7387 56.1059 68.936 56.0739 69.16C56.0419 69.3733 56.0259 69.5973 56.0259 69.832V71.416H57.7859V72.648ZM65.2256 77.592H71.1456V79H63.6416V67.672H70.9056V69.064H65.2256V72.456H70.5696V73.816H65.2256V77.592ZM75.027 75.016L72.259 71.416H74.115L75.971 74.024L77.843 71.416H79.603L76.867 75L79.923 79H78.051L75.939 76.04L73.795 79H71.987L75.027 75.016ZM82.8469 82.84H81.3429V71.416H82.8149V72.6H82.8629C83.1082 72.1947 83.4655 71.864 83.9349 71.608C84.4149 71.3413 84.9695 71.208 85.5989 71.208C86.1642 71.208 86.6762 71.3093 87.1349 71.512C87.6042 71.7147 88.0042 71.9973 88.3349 72.36C88.6762 72.7227 88.9375 73.1493 89.1189 73.64C89.3002 74.12 89.3909 74.6373 89.3909 75.192C89.3909 75.7467 89.3002 76.2693 89.1189 76.76C88.9375 77.2507 88.6815 77.6773 88.3509 78.04C88.0202 78.4027 87.6202 78.6907 87.1509 78.904C86.6815 79.1067 86.1535 79.208 85.5669 79.208C85.0229 79.208 84.5109 79.0907 84.0309 78.856C83.5509 78.6213 83.1722 78.2907 82.8949 77.864H82.8469V82.84ZM87.8389 75.192C87.8389 74.84 87.7855 74.4987 87.6789 74.168C87.5722 73.8373 87.4122 73.544 87.1989 73.288C86.9855 73.032 86.7189 72.8293 86.3989 72.68C86.0895 72.5307 85.7269 72.456 85.3109 72.456C84.9269 72.456 84.5749 72.5307 84.2549 72.68C83.9455 72.8293 83.6789 73.032 83.4549 73.288C83.2309 73.544 83.0549 73.8373 82.9269 74.168C82.8095 74.4987 82.7509 74.8453 82.7509 75.208C82.7509 75.5707 82.8095 75.9173 82.9269 76.248C83.0549 76.5787 83.2309 76.872 83.4549 77.128C83.6789 77.3733 83.9455 77.5707 84.2549 77.72C84.5749 77.8693 84.9269 77.944 85.3109 77.944C85.7269 77.944 86.0895 77.8693 86.3989 77.72C86.7189 77.56 86.9855 77.352 87.1989 77.096C87.4122 76.84 87.5722 76.5467 87.6789 76.216C87.7855 75.8853 87.8389 75.544 87.8389 75.192ZM97.0355 74.536C97.0248 74.2373 96.9715 73.96 96.8755 73.704C96.7902 73.4373 96.6568 73.208 96.4755 73.016C96.3048 72.824 96.0862 72.6747 95.8195 72.568C95.5635 72.4507 95.2595 72.392 94.9075 72.392C94.5875 72.392 94.2835 72.4507 93.9955 72.568C93.7182 72.6747 93.4728 72.824 93.2595 73.016C93.0568 73.208 92.8862 73.4373 92.7475 73.704C92.6195 73.96 92.5448 74.2373 92.5235 74.536H97.0355ZM98.5555 75.144C98.5555 75.2293 98.5555 75.3147 98.5555 75.4C98.5555 75.4853 98.5502 75.5707 98.5395 75.656H92.5235C92.5342 75.976 92.6035 76.28 92.7315 76.568C92.8702 76.8453 93.0515 77.0907 93.2755 77.304C93.4995 77.5067 93.7555 77.6667 94.0435 77.784C94.3422 77.9013 94.6568 77.96 94.9875 77.96C95.4995 77.96 95.9422 77.848 96.3155 77.624C96.6888 77.4 96.9822 77.128 97.1955 76.808L98.2515 77.656C97.8462 78.1893 97.3662 78.584 96.8115 78.84C96.2675 79.0853 95.6595 79.208 94.9875 79.208C94.4115 79.208 93.8782 79.112 93.3875 78.92C92.8968 78.728 92.4755 78.4613 92.1235 78.12C91.7715 77.768 91.4942 77.3467 91.2915 76.856C91.0888 76.3653 90.9875 75.8213 90.9875 75.224C90.9875 74.6373 91.0835 74.0987 91.2755 73.608C91.4782 73.1067 91.7555 72.68 92.1075 72.328C92.4595 71.976 92.8755 71.704 93.3555 71.512C93.8355 71.3093 94.3528 71.208 94.9075 71.208C95.4622 71.208 95.9635 71.2987 96.4115 71.48C96.8702 71.6613 97.2542 71.9227 97.5635 72.264C97.8835 72.6053 98.1288 73.0213 98.2995 73.512C98.4702 73.992 98.5555 74.536 98.5555 75.144ZM100.655 73.048C100.655 72.8453 100.65 72.584 100.639 72.264C100.629 71.944 100.613 71.6613 100.591 71.416H102.015C102.037 71.608 102.053 71.832 102.063 72.088C102.074 72.3333 102.079 72.536 102.079 72.696H102.127C102.341 72.248 102.65 71.8907 103.055 71.624C103.471 71.3467 103.935 71.208 104.447 71.208C104.682 71.208 104.879 71.2293 105.039 71.272L104.975 72.664C104.762 72.6107 104.533 72.584 104.287 72.584C103.925 72.584 103.61 72.6533 103.343 72.792C103.077 72.92 102.853 73.096 102.671 73.32C102.501 73.544 102.373 73.8053 102.287 74.104C102.202 74.392 102.159 74.696 102.159 75.016V79H100.655V73.048ZM107.972 79H106.468V71.416H107.972V79ZM108.228 68.68C108.228 68.9573 108.127 69.1867 107.924 69.368C107.732 69.5493 107.498 69.64 107.22 69.64C106.943 69.64 106.708 69.5493 106.516 69.368C106.324 69.176 106.228 68.9467 106.228 68.68C106.228 68.4027 106.324 68.1733 106.516 67.992C106.708 67.8 106.943 67.704 107.22 67.704C107.498 67.704 107.732 67.8 107.924 67.992C108.127 68.1733 108.228 68.4027 108.228 68.68ZM116.145 74.536C116.134 74.2373 116.081 73.96 115.985 73.704C115.9 73.4373 115.766 73.208 115.585 73.016C115.414 72.824 115.196 72.6747 114.929 72.568C114.673 72.4507 114.369 72.392 114.017 72.392C113.697 72.392 113.393 72.4507 113.105 72.568C112.828 72.6747 112.582 72.824 112.369 73.016C112.166 73.208 111.996 73.4373 111.857 73.704C111.729 73.96 111.654 74.2373 111.633 74.536H116.145ZM117.665 75.144C117.665 75.2293 117.665 75.3147 117.665 75.4C117.665 75.4853 117.66 75.5707 117.649 75.656H111.633C111.644 75.976 111.713 76.28 111.841 76.568C111.98 76.8453 112.161 77.0907 112.385 77.304C112.609 77.5067 112.865 77.6667 113.153 77.784C113.452 77.9013 113.766 77.96 114.097 77.96C114.609 77.96 115.052 77.848 115.425 77.624C115.798 77.4 116.092 77.128 116.305 76.808L117.361 77.656C116.956 78.1893 116.476 78.584 115.921 78.84C115.377 79.0853 114.769 79.208 114.097 79.208C113.521 79.208 112.988 79.112 112.497 78.92C112.006 78.728 111.585 78.4613 111.233 78.12C110.881 77.768 110.604 77.3467 110.401 76.856C110.198 76.3653 110.097 75.8213 110.097 75.224C110.097 74.6373 110.193 74.0987 110.385 73.608C110.588 73.1067 110.865 72.68 111.217 72.328C111.569 71.976 111.985 71.704 112.465 71.512C112.945 71.3093 113.462 71.208 114.017 71.208C114.572 71.208 115.073 71.2987 115.521 71.48C115.98 71.6613 116.364 71.9227 116.673 72.264C116.993 72.6053 117.238 73.0213 117.409 73.512C117.58 73.992 117.665 74.536 117.665 75.144ZM121.125 71.416C121.146 71.608 121.162 71.8267 121.173 72.072C121.183 72.3067 121.189 72.504 121.189 72.664H121.237C121.333 72.4613 121.461 72.2747 121.621 72.104C121.791 71.9227 121.983 71.768 122.197 71.64C122.41 71.5013 122.645 71.3947 122.901 71.32C123.157 71.2453 123.423 71.208 123.701 71.208C124.191 71.208 124.613 71.2933 124.965 71.464C125.317 71.624 125.61 71.8427 125.845 72.12C126.079 72.3973 126.25 72.7227 126.357 73.096C126.474 73.4693 126.533 73.8693 126.533 74.296V79H125.029V74.792C125.029 74.4827 125.002 74.1893 124.949 73.912C124.906 73.6347 124.821 73.3893 124.693 73.176C124.565 72.9627 124.389 72.792 124.165 72.664C123.941 72.536 123.653 72.472 123.301 72.472C122.703 72.472 122.213 72.7013 121.829 73.16C121.455 73.608 121.269 74.2107 121.269 74.968V79H119.765V73.048C119.765 72.8453 119.759 72.584 119.749 72.264C119.738 71.944 119.722 71.6613 119.701 71.416H121.125ZM134.389 73.336C134.229 73.0907 133.989 72.888 133.669 72.728C133.349 72.5573 133.008 72.472 132.645 72.472C132.251 72.472 131.899 72.5467 131.589 72.696C131.291 72.8453 131.035 73.048 130.821 73.304C130.608 73.5493 130.443 73.8373 130.325 74.168C130.219 74.4987 130.165 74.8453 130.165 75.208C130.165 75.5707 130.219 75.9173 130.325 76.248C130.443 76.5787 130.608 76.872 130.821 77.128C131.035 77.3733 131.296 77.5707 131.605 77.72C131.915 77.8693 132.267 77.944 132.661 77.944C133.045 77.944 133.392 77.8693 133.701 77.72C134.021 77.5707 134.283 77.368 134.485 77.112L135.493 78.024C135.173 78.3973 134.773 78.6907 134.293 78.904C133.813 79.1067 133.269 79.208 132.661 79.208C132.075 79.208 131.531 79.112 131.029 78.92C130.539 78.728 130.112 78.4613 129.749 78.12C129.387 77.768 129.099 77.3467 128.885 76.856C128.683 76.3653 128.581 75.816 128.581 75.208C128.581 74.6107 128.683 74.0667 128.885 73.576C129.088 73.0853 129.371 72.664 129.733 72.312C130.096 71.96 130.523 71.688 131.013 71.496C131.515 71.304 132.053 71.208 132.629 71.208C133.163 71.208 133.691 71.3147 134.213 71.528C134.747 71.7413 135.168 72.0507 135.477 72.456L134.389 73.336ZM142.536 74.536C142.525 74.2373 142.472 73.96 142.376 73.704C142.29 73.4373 142.157 73.208 141.976 73.016C141.805 72.824 141.586 72.6747 141.32 72.568C141.064 72.4507 140.76 72.392 140.408 72.392C140.088 72.392 139.784 72.4507 139.496 72.568C139.218 72.6747 138.973 72.824 138.76 73.016C138.557 73.208 138.386 73.4373 138.248 73.704C138.12 73.96 138.045 74.2373 138.024 74.536H142.536ZM144.056 75.144C144.056 75.2293 144.056 75.3147 144.056 75.4C144.056 75.4853 144.05 75.5707 144.04 75.656H138.024C138.034 75.976 138.104 76.28 138.232 76.568C138.37 76.8453 138.552 77.0907 138.776 77.304C139 77.5067 139.256 77.6667 139.544 77.784C139.842 77.9013 140.157 77.96 140.488 77.96C141 77.96 141.442 77.848 141.816 77.624C142.189 77.4 142.482 77.128 142.696 76.808L143.752 77.656C143.346 78.1893 142.866 78.584 142.312 78.84C141.768 79.0853 141.16 79.208 140.488 79.208C139.912 79.208 139.378 79.112 138.888 78.92C138.397 78.728 137.976 78.4613 137.624 78.12C137.272 77.768 136.994 77.3467 136.792 76.856C136.589 76.3653 136.488 75.8213 136.488 75.224C136.488 74.6373 136.584 74.0987 136.776 73.608C136.978 73.1067 137.256 72.68 137.608 72.328C137.96 71.976 138.376 71.704 138.856 71.512C139.336 71.3093 139.853 71.208 140.408 71.208C140.962 71.208 141.464 71.2987 141.912 71.48C142.37 71.6613 142.754 71.9227 143.064 72.264C143.384 72.6053 143.629 73.0213 143.8 73.512C143.97 73.992 144.056 74.536 144.056 75.144Z" fill="#2557AB"/>
</g>
<defs>
<clipPath id="clip0_0_5">
<rect width="147" height="85" fill="white"/>
</clipPath>
</defs>
</svg>
