<svg width="135" height="85" viewBox="0 0 135 85" fill="none" xmlns="http://www.w3.org/2000/svg">
<g clip-path="url(#clip0_0_8)">
<path d="M9.246 27.646L9.338 27.738C9.82867 27.37 10.5187 27.0787 11.408 26.864C12.2973 26.6493 13.156 26.542 13.984 26.542C15.3947 26.542 16.698 26.7873 17.894 27.278C19.1207 27.7687 20.1787 28.4587 21.068 29.348C21.9573 30.2067 22.6473 31.2647 23.138 32.522C23.6593 33.7487 23.92 35.098 23.92 36.57C23.92 38.1033 23.6593 39.4987 23.138 40.756C22.6167 42.0133 21.8807 43.0867 20.93 43.976C19.9793 44.8653 18.86 45.5553 17.572 46.046C16.284 46.5673 14.8733 46.828 13.34 46.828C11.8067 46.828 10.396 46.5673 9.108 46.046C7.82 45.5553 6.70067 44.8653 5.75 43.976C4.79933 43.0867 4.06333 42.0133 3.542 40.756C3.02067 39.4987 2.76 38.1033 2.76 36.57C2.76 34.8833 3.05133 33.3193 3.634 31.878C4.21667 30.4367 4.90667 29.0567 5.704 27.738L14.582 13.432H18.4L9.246 27.646ZM6.072 36.57C6.072 37.6433 6.24067 38.64 6.578 39.56C6.946 40.4493 7.452 41.2313 8.096 41.906C8.74 42.55 9.50667 43.0713 10.396 43.47C11.2853 43.838 12.2667 44.022 13.34 44.022C14.4133 44.022 15.3947 43.838 16.284 43.47C17.1733 43.0713 17.94 42.55 18.584 41.906C19.228 41.2313 19.7187 40.4493 20.056 39.56C20.424 38.64 20.608 37.6433 20.608 36.57C20.608 35.5273 20.4393 34.5613 20.102 33.672C19.7647 32.752 19.274 31.97 18.63 31.326C18.0167 30.6513 17.25 30.13 16.33 29.762C15.4407 29.394 14.444 29.21 13.34 29.21C12.236 29.21 11.224 29.394 10.304 29.762C9.41467 30.13 8.648 30.6513 8.004 31.326C7.39067 31.97 6.91533 32.752 6.578 33.672C6.24067 34.5613 6.072 35.5273 6.072 36.57ZM35.1476 43.792C35.1476 44.436 34.9176 45.0187 34.4576 45.54C33.9976 46.0307 33.3996 46.276 32.6636 46.276C31.9276 46.276 31.3296 46.0307 30.8696 45.54C30.4096 45.0187 30.1796 44.436 30.1796 43.792C30.1796 43.148 30.4096 42.5807 30.8696 42.09C31.3296 41.5687 31.9276 41.308 32.6636 41.308C33.3996 41.308 33.9976 41.5687 34.4576 42.09C34.9176 42.5807 35.1476 43.148 35.1476 43.792ZM61.8168 46H40.9788V42.55L54.3188 29.072C54.8095 28.5813 55.2848 28.06 55.7448 27.508C56.2355 26.9253 56.6648 26.3273 57.0328 25.714C57.4008 25.1007 57.6921 24.4567 57.9068 23.782C58.1215 23.0767 58.2288 22.356 58.2288 21.62C58.2288 20.6693 58.0601 19.8107 57.7228 19.044C57.3855 18.2773 56.9101 17.6333 56.2968 17.112C55.7141 16.56 55.0241 16.146 54.2268 15.87C53.4601 15.5633 52.6475 15.41 51.7888 15.41C50.0408 15.41 48.5688 15.962 47.3728 17.066C46.1768 18.1393 45.4101 19.5193 45.0728 21.206L41.8068 20.562C42.0215 19.4273 42.4201 18.3693 43.0028 17.388C43.6161 16.4067 44.3521 15.5633 45.2108 14.858C46.1001 14.1527 47.0968 13.6007 48.2008 13.202C49.3048 12.8033 50.5008 12.604 51.7888 12.604C53.1075 12.604 54.3495 12.8033 55.5148 13.202C56.7108 13.57 57.7535 14.1373 58.6428 14.904C59.5321 15.64 60.2375 16.5753 60.7588 17.71C61.3108 18.814 61.5868 20.102 61.5868 21.574C61.5868 22.6167 61.4335 23.5827 61.1268 24.472C60.8508 25.3613 60.4675 26.2047 59.9768 27.002C59.5168 27.7993 58.9648 28.566 58.3208 29.302C57.6768 30.0073 57.0021 30.7127 56.2968 31.418L44.5668 43.056H61.8168V46ZM72.6764 34.178H72.8144L82.7504 24.472H87.2584L76.4024 34.316L88.3624 46H83.7624L72.8144 34.684H72.6764V46H69.5484V11.224H72.6764V34.178Z" fill="#13253A"/>
<path d="M105.464 30.682H115.814V33.442H105.464V43.792H102.704V33.442H92.3536V30.682H102.704V20.332H105.464V30.682Z" fill="#FF7F57"/>
<path d="M11.088 77.24C10.64 77.848 10.0587 78.344 9.344 78.728C8.62933 79.1013 7.77067 79.288 6.768 79.288C5.904 79.288 5.104 79.144 4.368 78.856C3.64267 78.5573 3.01333 78.1467 2.48 77.624C1.95733 77.0907 1.54667 76.4613 1.248 75.736C0.949333 75 0.8 74.1947 0.8 73.32C0.8 72.4347 0.949333 71.6293 1.248 70.904C1.55733 70.168 1.97867 69.544 2.512 69.032C3.056 68.5093 3.696 68.104 4.432 67.816C5.168 67.528 5.968 67.384 6.832 67.384C7.216 67.384 7.60533 67.4213 8 67.496C8.39467 67.5707 8.77333 67.6827 9.136 67.832C9.49867 67.9813 9.82933 68.168 10.128 68.392C10.4267 68.6053 10.6827 68.856 10.896 69.144L9.648 70.104C9.37067 69.72 8.976 69.4053 8.464 69.16C7.96267 68.904 7.41867 68.776 6.832 68.776C6.17067 68.776 5.57333 68.8987 5.04 69.144C4.51733 69.3787 4.06933 69.704 3.696 70.12C3.32267 70.536 3.03467 71.0213 2.832 71.576C2.62933 72.12 2.528 72.7013 2.528 73.32C2.528 73.96 2.624 74.5573 2.816 75.112C3.01867 75.6667 3.30133 76.152 3.664 76.568C4.03733 76.9733 4.48533 77.2933 5.008 77.528C5.54133 77.7627 6.13333 77.88 6.784 77.88C7.424 77.88 8.00533 77.752 8.528 77.496C9.05067 77.24 9.48267 76.8667 9.824 76.376L11.088 77.24ZM17.9681 79C17.9468 78.808 17.9308 78.5947 17.9201 78.36C17.9095 78.1147 17.9041 77.912 17.9041 77.752H17.8721C17.6801 78.1573 17.3548 78.504 16.8961 78.792C16.4481 79.0693 15.9468 79.208 15.3921 79.208C14.9015 79.208 14.4748 79.128 14.1121 78.968C13.7601 78.808 13.4668 78.5893 13.2321 78.312C13.0081 78.024 12.8375 77.6933 12.7201 77.32C12.6135 76.9467 12.5601 76.5467 12.5601 76.12V71.416H14.0641V75.608C14.0641 75.9173 14.0855 76.216 14.1281 76.504C14.1815 76.7813 14.2721 77.0267 14.4001 77.24C14.5281 77.4533 14.7041 77.624 14.9281 77.752C15.1521 77.88 15.4401 77.944 15.7921 77.944C16.4001 77.944 16.8908 77.72 17.2641 77.272C17.6375 76.8133 17.8241 76.2053 17.8241 75.448V71.416H19.3281V77.368C19.3281 77.5707 19.3335 77.832 19.3441 78.152C19.3548 78.472 19.3708 78.7547 19.3921 79H17.9681ZM26.0326 73.336C25.862 73.0587 25.622 72.8347 25.3126 72.664C25.0033 72.4827 24.6566 72.392 24.2726 72.392C24.102 72.392 23.9313 72.4133 23.7606 72.456C23.59 72.488 23.4353 72.5467 23.2966 72.632C23.1686 72.7067 23.062 72.808 22.9766 72.936C22.902 73.0533 22.8646 73.2027 22.8646 73.384C22.8646 73.704 23.0086 73.944 23.2966 74.104C23.5846 74.2533 24.0166 74.392 24.5926 74.52C24.9553 74.6053 25.2913 74.7067 25.6006 74.824C25.91 74.9413 26.1766 75.0907 26.4006 75.272C26.6353 75.4427 26.8166 75.6507 26.9446 75.896C27.0726 76.1413 27.1366 76.4293 27.1366 76.76C27.1366 77.208 27.0513 77.5867 26.8806 77.896C26.71 78.2053 26.4806 78.4613 26.1926 78.664C25.9153 78.856 25.5953 78.9947 25.2326 79.08C24.87 79.1653 24.4966 79.208 24.1126 79.208C23.5366 79.208 22.9713 79.096 22.4166 78.872C21.8726 78.648 21.4193 78.3067 21.0566 77.848L22.1286 76.936C22.3313 77.2347 22.6086 77.4853 22.9606 77.688C23.3233 77.8907 23.718 77.992 24.1446 77.992C24.3366 77.992 24.518 77.976 24.6886 77.944C24.87 77.9013 25.03 77.8373 25.1686 77.752C25.318 77.6667 25.4353 77.5547 25.5206 77.416C25.606 77.2773 25.6486 77.1013 25.6486 76.888C25.6486 76.536 25.478 76.2747 25.1366 76.104C24.806 75.9333 24.3153 75.7733 23.6646 75.624C23.4086 75.56 23.1473 75.4853 22.8806 75.4C22.6246 75.304 22.39 75.176 22.1766 75.016C21.9633 74.856 21.7873 74.6587 21.6486 74.424C21.5206 74.1787 21.4566 73.88 21.4566 73.528C21.4566 73.1227 21.5366 72.776 21.6966 72.488C21.8673 72.1893 22.086 71.9493 22.3526 71.768C22.6193 71.576 22.9233 71.4373 23.2646 71.352C23.606 71.256 23.958 71.208 24.3206 71.208C24.8646 71.208 25.3873 71.3147 25.8886 71.528C26.4006 71.7413 26.7953 72.0507 27.0726 72.456L26.0326 73.336ZM32.758 72.648H30.742V76.6C30.742 77.0587 30.8273 77.3893 30.998 77.592C31.1687 77.784 31.4407 77.88 31.814 77.88C31.9527 77.88 32.102 77.864 32.262 77.832C32.422 77.8 32.566 77.752 32.694 77.688L32.742 78.92C32.5607 78.984 32.358 79.032 32.134 79.064C31.9207 79.1067 31.6967 79.128 31.462 79.128C30.7473 79.128 30.198 78.9307 29.814 78.536C29.4407 78.1413 29.254 77.5493 29.254 76.76V72.648H27.798V71.416H29.254V69.24H30.742V71.416H32.758V72.648ZM41.9916 75.192C41.9916 75.7787 41.885 76.3173 41.6716 76.808C41.469 77.2987 41.181 77.7253 40.8076 78.088C40.445 78.44 40.013 78.7173 39.5116 78.92C39.0103 79.112 38.4716 79.208 37.8956 79.208C37.3196 79.208 36.781 79.112 36.2796 78.92C35.7783 78.7173 35.3463 78.44 34.9836 78.088C34.621 77.7253 34.333 77.2987 34.1196 76.808C33.917 76.3173 33.8156 75.7787 33.8156 75.192C33.8156 74.6053 33.917 74.072 34.1196 73.592C34.333 73.1013 34.621 72.68 34.9836 72.328C35.3463 71.976 35.7783 71.704 36.2796 71.512C36.781 71.3093 37.3196 71.208 37.8956 71.208C38.4716 71.208 39.0103 71.3093 39.5116 71.512C40.013 71.704 40.445 71.976 40.8076 72.328C41.181 72.68 41.469 73.1013 41.6716 73.592C41.885 74.072 41.9916 74.6053 41.9916 75.192ZM40.4236 75.192C40.4236 74.8293 40.365 74.4827 40.2476 74.152C40.141 73.8213 39.981 73.5333 39.7676 73.288C39.5543 73.032 39.2876 72.8293 38.9676 72.68C38.6583 72.5307 38.301 72.456 37.8956 72.456C37.4903 72.456 37.1276 72.5307 36.8076 72.68C36.4983 72.8293 36.237 73.032 36.0236 73.288C35.8103 73.5333 35.645 73.8213 35.5276 74.152C35.421 74.4827 35.3676 74.8293 35.3676 75.192C35.3676 75.5547 35.421 75.9013 35.5276 76.232C35.645 76.5627 35.8103 76.856 36.0236 77.112C36.237 77.368 36.4983 77.5707 36.8076 77.72C37.1276 77.8693 37.4903 77.944 37.8956 77.944C38.301 77.944 38.6583 77.8693 38.9676 77.72C39.2876 77.5707 39.5543 77.368 39.7676 77.112C39.981 76.856 40.141 76.5627 40.2476 76.232C40.365 75.9013 40.4236 75.5547 40.4236 75.192ZM45.5493 72.664C45.7413 72.2587 46.0453 71.9173 46.4613 71.64C46.8879 71.352 47.3893 71.208 47.9653 71.208C48.4773 71.208 48.9359 71.3253 49.3413 71.56C49.7573 71.7947 50.0826 72.184 50.3173 72.728C50.5733 72.2373 50.9306 71.864 51.3893 71.608C51.8479 71.3413 52.3493 71.208 52.8933 71.208C53.3839 71.208 53.8053 71.2933 54.1573 71.464C54.5093 71.624 54.8026 71.8427 55.0373 72.12C55.2719 72.3973 55.4426 72.7227 55.5493 73.096C55.6666 73.4693 55.7253 73.8693 55.7253 74.296V79H54.2213V74.792C54.2213 74.4827 54.1946 74.1893 54.1413 73.912C54.0879 73.6347 53.9973 73.3893 53.8693 73.176C53.7413 72.9627 53.5706 72.792 53.3573 72.664C53.1439 72.536 52.8719 72.472 52.5413 72.472C52.1999 72.472 51.9066 72.5467 51.6613 72.696C51.4159 72.8347 51.2133 73.0213 51.0533 73.256C50.9039 73.48 50.7919 73.736 50.7173 74.024C50.6533 74.312 50.6213 74.6053 50.6213 74.904V79H49.1173V74.488C49.1173 74.1893 49.0906 73.9173 49.0373 73.672C48.9839 73.4267 48.8933 73.2187 48.7653 73.048C48.6373 72.8667 48.4719 72.728 48.2693 72.632C48.0666 72.5253 47.8159 72.472 47.5173 72.472C46.9626 72.472 46.4986 72.7013 46.1253 73.16C45.7626 73.608 45.5813 74.2107 45.5813 74.968V79H44.0773V73.048C44.0773 72.8453 44.0719 72.584 44.0613 72.264C44.0506 71.944 44.0346 71.6613 44.0133 71.416H45.4373C45.4586 71.608 45.4746 71.8267 45.4853 72.072C45.4959 72.3067 45.5013 72.504 45.5013 72.664H45.5493ZM63.8168 74.536C63.8061 74.2373 63.7528 73.96 63.6568 73.704C63.5714 73.4373 63.4381 73.208 63.2568 73.016C63.0861 72.824 62.8674 72.6747 62.6008 72.568C62.3448 72.4507 62.0408 72.392 61.6888 72.392C61.3688 72.392 61.0648 72.4507 60.7768 72.568C60.4994 72.6747 60.2541 72.824 60.0408 73.016C59.8381 73.208 59.6674 73.4373 59.5288 73.704C59.4008 73.96 59.3261 74.2373 59.3048 74.536H63.8168ZM65.3368 75.144C65.3368 75.2293 65.3368 75.3147 65.3368 75.4C65.3368 75.4853 65.3314 75.5707 65.3208 75.656H59.3048C59.3154 75.976 59.3848 76.28 59.5128 76.568C59.6514 76.8453 59.8328 77.0907 60.0568 77.304C60.2808 77.5067 60.5368 77.6667 60.8248 77.784C61.1234 77.9013 61.4381 77.96 61.7688 77.96C62.2808 77.96 62.7234 77.848 63.0968 77.624C63.4701 77.4 63.7634 77.128 63.9768 76.808L65.0328 77.656C64.6274 78.1893 64.1474 78.584 63.5928 78.84C63.0488 79.0853 62.4408 79.208 61.7688 79.208C61.1928 79.208 60.6594 79.112 60.1688 78.92C59.6781 78.728 59.2568 78.4613 58.9048 78.12C58.5528 77.768 58.2754 77.3467 58.0728 76.856C57.8701 76.3653 57.7688 75.8213 57.7688 75.224C57.7688 74.6373 57.8648 74.0987 58.0568 73.608C58.2594 73.1067 58.5368 72.68 58.8888 72.328C59.2408 71.976 59.6568 71.704 60.1368 71.512C60.6168 71.3093 61.1341 71.208 61.6888 71.208C62.2434 71.208 62.7448 71.2987 63.1928 71.48C63.6514 71.6613 64.0354 71.9227 64.3448 72.264C64.6648 72.6053 64.9101 73.0213 65.0808 73.512C65.2514 73.992 65.3368 74.536 65.3368 75.144ZM67.4366 73.048C67.4366 72.8453 67.4313 72.584 67.4206 72.264C67.41 71.944 67.394 71.6613 67.3726 71.416H68.7966C68.818 71.608 68.834 71.832 68.8446 72.088C68.8553 72.3333 68.8606 72.536 68.8606 72.696H68.9086C69.122 72.248 69.4313 71.8907 69.8366 71.624C70.2526 71.3467 70.7166 71.208 71.2286 71.208C71.4633 71.208 71.6606 71.2293 71.8206 71.272L71.7566 72.664C71.5433 72.6107 71.314 72.584 71.0686 72.584C70.706 72.584 70.3913 72.6533 70.1246 72.792C69.858 72.92 69.634 73.096 69.4526 73.32C69.282 73.544 69.154 73.8053 69.0686 74.104C68.9833 74.392 68.9406 74.696 68.9406 75.016V79H67.4366V73.048ZM77.3295 73.336C77.1588 73.0587 76.9188 72.8347 76.6095 72.664C76.3002 72.4827 75.9535 72.392 75.5695 72.392C75.3988 72.392 75.2282 72.4133 75.0575 72.456C74.8868 72.488 74.7322 72.5467 74.5935 72.632C74.4655 72.7067 74.3588 72.808 74.2735 72.936C74.1988 73.0533 74.1615 73.2027 74.1615 73.384C74.1615 73.704 74.3055 73.944 74.5935 74.104C74.8815 74.2533 75.3135 74.392 75.8895 74.52C76.2522 74.6053 76.5882 74.7067 76.8975 74.824C77.2068 74.9413 77.4735 75.0907 77.6975 75.272C77.9322 75.4427 78.1135 75.6507 78.2415 75.896C78.3695 76.1413 78.4335 76.4293 78.4335 76.76C78.4335 77.208 78.3482 77.5867 78.1775 77.896C78.0068 78.2053 77.7775 78.4613 77.4895 78.664C77.2122 78.856 76.8922 78.9947 76.5295 79.08C76.1668 79.1653 75.7935 79.208 75.4095 79.208C74.8335 79.208 74.2682 79.096 73.7135 78.872C73.1695 78.648 72.7162 78.3067 72.3535 77.848L73.4255 76.936C73.6282 77.2347 73.9055 77.4853 74.2575 77.688C74.6202 77.8907 75.0148 77.992 75.4415 77.992C75.6335 77.992 75.8148 77.976 75.9855 77.944C76.1668 77.9013 76.3268 77.8373 76.4655 77.752C76.6148 77.6667 76.7322 77.5547 76.8175 77.416C76.9028 77.2773 76.9455 77.1013 76.9455 76.888C76.9455 76.536 76.7748 76.2747 76.4335 76.104C76.1028 75.9333 75.6122 75.7733 74.9615 75.624C74.7055 75.56 74.4442 75.4853 74.1775 75.4C73.9215 75.304 73.6868 75.176 73.4735 75.016C73.2602 74.856 73.0842 74.6587 72.9455 74.424C72.8175 74.1787 72.7535 73.88 72.7535 73.528C72.7535 73.1227 72.8335 72.776 72.9935 72.488C73.1642 72.1893 73.3828 71.9493 73.6495 71.768C73.9162 71.576 74.2202 71.4373 74.5615 71.352C74.9028 71.256 75.2548 71.208 75.6175 71.208C76.1615 71.208 76.6842 71.3147 77.1855 71.528C77.6975 71.7413 78.0922 72.0507 78.3695 72.456L77.3295 73.336ZM90.0549 69.768C89.8309 69.4587 89.5269 69.208 89.1429 69.016C88.7589 68.8133 88.3269 68.712 87.8469 68.712C87.5909 68.712 87.3295 68.7493 87.0629 68.824C86.8069 68.888 86.5722 69 86.3589 69.16C86.1455 69.3093 85.9695 69.5013 85.8309 69.736C85.7029 69.96 85.6389 70.232 85.6389 70.552C85.6389 70.8613 85.6975 71.1227 85.8149 71.336C85.9429 71.5387 86.1082 71.7147 86.3109 71.864C86.5242 72.0027 86.7695 72.1253 87.0469 72.232C87.3349 72.328 87.6389 72.4293 87.9589 72.536C88.3429 72.6533 88.7322 72.7867 89.1269 72.936C89.5215 73.0853 89.8789 73.2827 90.1989 73.528C90.5189 73.7733 90.7802 74.0827 90.9829 74.456C91.1855 74.8187 91.2869 75.2827 91.2869 75.848C91.2869 76.4347 91.1749 76.9467 90.9509 77.384C90.7375 77.8107 90.4495 78.168 90.0869 78.456C89.7242 78.7333 89.3029 78.9413 88.8229 79.08C88.3535 79.2187 87.8682 79.288 87.3669 79.288C86.6522 79.288 85.9589 79.1493 85.2869 78.872C84.6255 78.5947 84.0762 78.184 83.6389 77.64L84.8709 76.6C85.1375 76.9947 85.4949 77.3147 85.9429 77.56C86.3909 77.8053 86.8762 77.928 87.3989 77.928C87.6655 77.928 87.9322 77.8907 88.1989 77.816C88.4655 77.7413 88.7055 77.624 88.9189 77.464C89.1429 77.304 89.3242 77.1067 89.4629 76.872C89.6015 76.6267 89.6709 76.3333 89.6709 75.992C89.6709 75.6507 89.5962 75.368 89.4469 75.144C89.3082 74.9093 89.1162 74.712 88.8709 74.552C88.6255 74.392 88.3375 74.2587 88.0069 74.152C87.6869 74.0347 87.3455 73.9173 86.9829 73.8C86.6202 73.6933 86.2629 73.5653 85.9109 73.416C85.5589 73.256 85.2442 73.0587 84.9669 72.824C84.6895 72.5787 84.4655 72.28 84.2949 71.928C84.1242 71.576 84.0389 71.1387 84.0389 70.616C84.0389 70.0507 84.1509 69.5653 84.3749 69.16C84.6095 68.7547 84.9082 68.4187 85.2709 68.152C85.6442 67.8853 86.0602 67.6933 86.5189 67.576C86.9882 67.448 87.4575 67.384 87.9269 67.384C88.5882 67.384 89.2069 67.5013 89.7829 67.736C90.3589 67.9707 90.8229 68.2853 91.1749 68.68L90.0549 69.768ZM99.0043 74.536C98.9936 74.2373 98.9403 73.96 98.8443 73.704C98.7589 73.4373 98.6256 73.208 98.4443 73.016C98.2736 72.824 98.0549 72.6747 97.7883 72.568C97.5323 72.4507 97.2283 72.392 96.8763 72.392C96.5563 72.392 96.2523 72.4507 95.9643 72.568C95.6869 72.6747 95.4416 72.824 95.2283 73.016C95.0256 73.208 94.8549 73.4373 94.7163 73.704C94.5883 73.96 94.5136 74.2373 94.4923 74.536H99.0043ZM100.524 75.144C100.524 75.2293 100.524 75.3147 100.524 75.4C100.524 75.4853 100.519 75.5707 100.508 75.656H94.4923C94.5029 75.976 94.5723 76.28 94.7003 76.568C94.8389 76.8453 95.0203 77.0907 95.2443 77.304C95.4683 77.5067 95.7243 77.6667 96.0123 77.784C96.3109 77.9013 96.6256 77.96 96.9563 77.96C97.4683 77.96 97.9109 77.848 98.2843 77.624C98.6576 77.4 98.9509 77.128 99.1643 76.808L100.22 77.656C99.8149 78.1893 99.3349 78.584 98.7803 78.84C98.2363 79.0853 97.6283 79.208 96.9563 79.208C96.3803 79.208 95.8469 79.112 95.3563 78.92C94.8656 78.728 94.4443 78.4613 94.0923 78.12C93.7403 77.768 93.4629 77.3467 93.2603 76.856C93.0576 76.3653 92.9563 75.8213 92.9563 75.224C92.9563 74.6373 93.0523 74.0987 93.2443 73.608C93.4469 73.1067 93.7243 72.68 94.0763 72.328C94.4283 71.976 94.8443 71.704 95.3243 71.512C95.8043 71.3093 96.3216 71.208 96.8763 71.208C97.4309 71.208 97.9323 71.2987 98.3803 71.48C98.8389 71.6613 99.2229 71.9227 99.5323 72.264C99.8523 72.6053 100.098 73.0213 100.268 73.512C100.439 73.992 100.524 74.536 100.524 75.144ZM102.624 73.048C102.624 72.8453 102.619 72.584 102.608 72.264C102.597 71.944 102.581 71.6613 102.56 71.416H103.984C104.005 71.608 104.021 71.832 104.032 72.088C104.043 72.3333 104.048 72.536 104.048 72.696H104.096C104.309 72.248 104.619 71.8907 105.024 71.624C105.44 71.3467 105.904 71.208 106.416 71.208C106.651 71.208 106.848 71.2293 107.008 71.272L106.944 72.664C106.731 72.6107 106.501 72.584 106.256 72.584C105.893 72.584 105.579 72.6533 105.312 72.792C105.045 72.92 104.821 73.096 104.64 73.32C104.469 73.544 104.341 73.8053 104.256 74.104C104.171 74.392 104.128 74.696 104.128 75.016V79H102.624V73.048ZM111.989 79H110.357L107.269 71.416H108.933L111.157 77.384H111.189L113.429 71.416H115.029L111.989 79ZM122.036 74.536C122.025 74.2373 121.972 73.96 121.876 73.704C121.79 73.4373 121.657 73.208 121.476 73.016C121.305 72.824 121.086 72.6747 120.82 72.568C120.564 72.4507 120.26 72.392 119.908 72.392C119.588 72.392 119.284 72.4507 118.996 72.568C118.718 72.6747 118.473 72.824 118.26 73.016C118.057 73.208 117.886 73.4373 117.748 73.704C117.62 73.96 117.545 74.2373 117.524 74.536H122.036ZM123.556 75.144C123.556 75.2293 123.556 75.3147 123.556 75.4C123.556 75.4853 123.55 75.5707 123.54 75.656H117.524C117.534 75.976 117.604 76.28 117.732 76.568C117.87 76.8453 118.052 77.0907 118.276 77.304C118.5 77.5067 118.756 77.6667 119.044 77.784C119.342 77.9013 119.657 77.96 119.988 77.96C120.5 77.96 120.942 77.848 121.316 77.624C121.689 77.4 121.982 77.128 122.196 76.808L123.252 77.656C122.846 78.1893 122.366 78.584 121.812 78.84C121.268 79.0853 120.66 79.208 119.988 79.208C119.412 79.208 118.878 79.112 118.388 78.92C117.897 78.728 117.476 78.4613 117.124 78.12C116.772 77.768 116.494 77.3467 116.292 76.856C116.089 76.3653 115.988 75.8213 115.988 75.224C115.988 74.6373 116.084 74.0987 116.276 73.608C116.478 73.1067 116.756 72.68 117.108 72.328C117.46 71.976 117.876 71.704 118.356 71.512C118.836 71.3093 119.353 71.208 119.908 71.208C120.462 71.208 120.964 71.2987 121.412 71.48C121.87 71.6613 122.254 71.9227 122.564 72.264C122.884 72.6053 123.129 73.0213 123.3 73.512C123.47 73.992 123.556 74.536 123.556 75.144ZM131.703 77.8C131.415 78.2587 131.021 78.6107 130.519 78.856C130.029 79.0907 129.511 79.208 128.967 79.208C128.381 79.208 127.853 79.1067 127.383 78.904C126.914 78.6907 126.514 78.4027 126.183 78.04C125.853 77.6773 125.597 77.2507 125.415 76.76C125.234 76.2693 125.143 75.7467 125.143 75.192C125.143 74.6373 125.234 74.12 125.415 73.64C125.597 73.1493 125.853 72.7227 126.183 72.36C126.525 71.9973 126.93 71.7147 127.399 71.512C127.869 71.3093 128.386 71.208 128.951 71.208C129.57 71.208 130.109 71.3413 130.567 71.608C131.026 71.864 131.389 72.1787 131.655 72.552H131.687V66.904H133.191V79H131.735V77.8H131.703ZM126.711 75.192C126.711 75.544 126.765 75.8853 126.871 76.216C126.978 76.5467 127.138 76.84 127.351 77.096C127.565 77.352 127.826 77.56 128.135 77.72C128.445 77.8693 128.807 77.944 129.223 77.944C129.607 77.944 129.954 77.8693 130.263 77.72C130.583 77.5707 130.855 77.3733 131.079 77.128C131.303 76.872 131.474 76.5787 131.591 76.248C131.719 75.9173 131.783 75.5707 131.783 75.208C131.783 74.8453 131.719 74.4987 131.591 74.168C131.474 73.8373 131.303 73.544 131.079 73.288C130.855 73.032 130.583 72.8293 130.263 72.68C129.954 72.5307 129.607 72.456 129.223 72.456C128.807 72.456 128.445 72.5307 128.135 72.68C127.826 72.8293 127.565 73.032 127.351 73.288C127.138 73.544 126.978 73.8373 126.871 74.168C126.765 74.4987 126.711 74.84 126.711 75.192Z" fill="#2557AB"/>
</g>
<defs>
<clipPath id="clip0_0_8">
<rect width="135" height="85" fill="white"/>
</clipPath>
</defs>
</svg>
